<svg width="141" height="30" viewBox="0 0 141 30" fill="none" xmlns="http://www.w3.org/2000/svg">
<path d="M15.7437 1.32546C15.7437 0.753746 16.2072 0.290283 16.7789 0.290283H20.0569C20.6287 0.290283 21.0921 0.753746 21.0921 1.32546V28.585C21.0921 29.1567 20.6287 29.6202 20.0569 29.6202H16.7789C16.2072 29.6202 15.7437 29.1567 15.7437 28.585V1.32546Z" fill="url(#paint0_linear_53_256)"/>
<path d="M135.651 9.26178C135.651 8.69007 136.115 8.22661 136.686 8.22661H139.964C140.536 8.22661 141 8.69007 141 9.26178V28.585C141 29.1567 140.536 29.6202 139.964 29.6202H136.686C136.115 29.6202 135.651 29.1567 135.651 28.585V9.26178Z" fill="url(#paint1_linear_53_256)"/>
<path d="M44.4614 8.22661C43.9953 8.22661 43.6632 8.67914 43.803 9.12378L50.0976 29.1371C50.188 29.4246 50.4545 29.6202 50.7559 29.6202H54.7464C55.0478 29.6202 55.3143 29.4246 55.4048 29.1371L59.1347 17.2777L62.8647 29.1371C62.9551 29.4246 63.2216 29.6202 63.523 29.6202H67.5136C67.8149 29.6202 68.0815 29.4246 68.1719 29.1371L74.4664 9.12378C74.6063 8.67914 74.2742 8.22661 73.8081 8.22661H69.9066C69.6052 8.22661 69.3387 8.42218 69.2483 8.70967L65.5183 20.5691L61.7883 8.70967C61.6979 8.42218 61.4314 8.22661 61.13 8.22661H57.1394C56.8381 8.22661 56.5715 8.42218 56.4811 8.70967L52.7512 20.5691L49.0212 8.70967C48.9308 8.42218 48.6642 8.22661 48.3629 8.22661H44.4614Z" fill="url(#paint2_linear_53_256)"/>
<path fill-rule="evenodd" clip-rule="evenodd" d="M33.8593 29.6202C39.7669 29.6202 44.556 24.8311 44.556 18.9234C44.556 13.0157 39.7669 8.22661 33.8593 8.22661C27.9516 8.22661 23.1625 13.0157 23.1625 18.9234C23.1625 24.8311 27.9516 29.6202 33.8593 29.6202ZM33.8593 24.4443C36.9084 24.4443 39.3802 21.9725 39.3802 18.9234C39.3802 15.8743 36.9084 13.4025 33.8593 13.4025C30.8101 13.4025 28.3383 15.8743 28.3383 18.9234C28.3383 21.9725 30.8101 24.4443 33.8593 24.4443Z" fill="url(#paint3_linear_53_256)"/>
<path d="M11.0855 0.473421C11.0855 0.468569 11.0816 0.464606 11.0767 0.464506C11.0223 0.463378 10.9677 0.462812 10.9129 0.462812C10.8935 0.462812 10.8741 0.462883 10.8548 0.463025C10.8454 0.462883 10.836 0.462812 10.8267 0.462812C10.7997 0.462812 10.7729 0.463401 10.7462 0.464567C6.53536 0.553276 3.14912 3.9945 3.14912 8.22661C3.14912 8.31138 3.15048 8.39584 3.15318 8.47996C3.15345 8.48842 3.15308 8.49688 3.15227 8.50531C3.15019 8.52715 3.14912 8.54928 3.14912 8.57167V28.9301C3.14912 29.3112 3.4581 29.6202 3.83924 29.6202H7.8074C8.18854 29.6202 8.49752 29.3112 8.49752 28.9301V15.2852C8.49752 15.2163 8.45634 15.1543 8.39394 15.1251C7.13014 14.5339 6.25464 13.2509 6.25464 11.7635C6.25464 10.276 7.13014 8.99305 8.39394 8.40178C8.45634 8.37258 8.49752 8.31062 8.49752 8.24172V8.22661C8.49752 6.89262 9.57893 5.81121 10.9129 5.81121C10.9664 5.81121 11.0194 5.81294 11.072 5.81636C11.0793 5.81683 11.0855 5.81107 11.0855 5.80377C11.0855 5.79751 11.0901 5.7922 11.0963 5.79128C11.9689 5.66107 12.6382 4.90852 12.6382 3.99965V2.27437C12.6382 1.3644 11.9673 0.611141 11.0931 0.482273C11.0887 0.481626 11.0855 0.47786 11.0855 0.473421Z" fill="url(#paint4_linear_53_256)"/>
<path d="M2.28648 9.96199C2.28648 9.52596 1.79862 9.31115 1.55235 9.67098C1.1447 10.2666 0.90625 10.9872 0.90625 11.7635C0.90625 12.5397 1.1447 13.2603 1.55235 13.8559C1.79862 14.2158 2.28648 14.0009 2.28648 13.5649C2.28648 13.458 2.25223 13.3545 2.19581 13.2636C1.92518 12.828 1.76889 12.314 1.76889 11.7635C1.76889 11.2129 1.92518 10.6989 2.19581 10.2633C2.25223 10.1725 2.28648 10.0689 2.28648 9.96199Z" fill="url(#paint5_linear_53_256)"/>
<path fill-rule="evenodd" clip-rule="evenodd" d="M122.539 29.6202C124.411 29.6202 126.142 28.8501 127.542 27.5465V28.585C127.542 29.1567 128.006 29.6202 128.578 29.6202H131.856C132.427 29.6202 132.891 29.1567 132.891 28.585V9.26178C132.891 8.69007 132.427 8.22661 131.856 8.22661H128.578C128.006 8.22661 127.542 8.69007 127.542 9.26178V10.3003C126.142 8.99673 124.411 8.22661 122.539 8.22661C117.87 8.22661 114.085 13.0157 114.085 18.9234C114.085 24.8311 117.87 29.6202 122.539 29.6202ZM123.315 24.2718C125.555 24.2718 127.37 21.8772 127.37 18.9234C127.37 15.9696 125.555 13.575 123.315 13.575C121.076 13.575 119.261 15.9696 119.261 18.9234C119.261 21.8772 121.076 24.2718 123.315 24.2718Z" fill="url(#paint6_linear_53_256)"/>
<path d="M82.685 8.22707C85.5165 8.25709 87.563 9.76301 88.7496 11.7069C89.8928 13.5798 90.2692 15.8689 90.043 17.8567C89.8406 19.6345 89.0025 22.1451 87.095 24.4102C88.1892 24.6883 89.4562 24.8593 90.9232 24.8745C91.0542 24.8732 91.1835 24.8795 91.3114 24.8756C94.2034 24.8756 96.4297 24.1778 98.0848 23.0471C98.8572 22.5194 99.4994 21.9014 100.024 21.2248C101.219 19.7727 101.702 18.2192 101.806 17.3104C101.928 16.2384 101.697 15.0567 101.189 14.2238C100.743 13.4928 100.134 13.0703 99.2046 13.0577C98.9054 13.0618 98.6395 13.1083 98.4015 13.1938L98.4003 13.1943C97.9463 13.3579 97.5942 13.6637 97.3071 14.0884C97.2774 14.1322 97.2485 14.1774 97.2201 14.2238C96.7117 15.0567 96.4812 16.2384 96.6032 17.3104C96.7132 18.277 97.2535 19.9728 98.622 21.5004C98.3135 21.7993 97.9728 22.0788 97.5982 22.3348C96.643 22.9873 95.4559 23.494 93.9999 23.773C92.5374 21.6245 91.9764 19.3768 91.8034 17.8567C91.6946 16.9009 91.7252 15.8755 91.9133 14.8602C91.9697 14.5557 92.0403 14.2521 92.1255 13.9516C92.3472 13.1701 92.6681 12.4092 93.0968 11.7069C93.4773 11.0835 93.9463 10.5052 94.5012 10.0061C95.4757 9.12965 96.7154 8.4977 98.2068 8.29562C98.5143 8.25395 98.8326 8.23055 99.1614 8.22707C99.1758 8.22707 99.1902 8.22665 99.2046 8.22673C99.2189 8.22665 99.2333 8.22661 99.2477 8.22661C102.079 8.25663 104.126 9.76301 105.312 11.7069C106.456 13.5798 106.832 15.8689 106.606 17.8567C106.403 19.6345 105.565 22.1451 103.658 24.4102C104.588 24.6466 105.643 24.8055 106.839 24.8573C106.889 24.8595 106.938 24.8657 106.986 24.8756L107.011 24.8756V24.8813C107.405 24.9747 107.702 25.321 107.702 25.7383V28.8438C107.702 29.2608 107.405 29.61 107.011 29.6795V29.7065C103.82 29.6202 101.054 29.0701 98.9303 28.0244C96.8307 29.0195 94.2554 29.6495 91.1389 29.7028C91.0667 29.7028 90.9941 29.7034 90.9225 29.7028C90.8509 29.7034 90.7797 29.7028 90.7075 29.7028C87.4538 29.6472 84.7901 28.9629 82.6418 27.8909C80.3993 29.0099 77.5952 29.7065 74.1447 29.7065C74.059 29.7095 73.9714 29.7044 73.8859 29.7065C73.3054 29.7204 72.61 29.6899 71.9322 29.6019C71.3594 29.5275 71.0472 28.9411 71.2171 28.389L72.0189 25.7831C72.1702 25.2914 72.6628 24.947 73.1769 24.8802C76.8373 25.0807 79.6384 24.2033 81.5827 22.9406C83.2926 21.8302 84.3602 20.405 84.7262 19.1475C85.0325 18.4307 85.1893 17.7833 85.2432 17.3104C85.3652 16.2384 85.1346 15.0567 84.6262 14.2238C84.18 13.4928 83.5716 13.0704 82.6418 13.0577C81.712 13.0704 81.1036 13.4928 80.6574 14.2238C80.149 15.0567 79.9184 16.2384 80.0405 17.3104C80.1506 18.2781 80.692 19.9768 82.064 21.5057C81.7799 21.7507 81.4632 21.9896 81.1129 22.2171C80.179 22.8236 79.0132 23.3432 77.6096 23.6719C76.1082 21.6134 75.4212 19.4432 75.2406 17.8567C75.0144 15.8689 75.3908 13.5798 76.534 11.7069C77.7206 9.76301 79.7671 8.25709 82.5986 8.22707C82.613 8.22707 82.6274 8.22665 82.6418 8.22673C82.6562 8.22665 82.6705 8.22707 82.685 8.22707Z" fill="url(#paint7_linear_53_256)"/>
<path d="M141 3.30956C141 4.78648 139.803 5.98376 138.326 5.98376C136.849 5.98376 135.652 4.78648 135.652 3.30956C135.652 1.83265 136.849 0.635368 138.326 0.635368C139.803 0.635368 141 1.83265 141 3.30956Z" fill="url(#paint8_linear_53_256)"/>
<path d="M114.775 26.946C114.775 28.4229 113.578 29.6202 112.101 29.6202C110.624 29.6202 109.427 28.4229 109.427 26.946C109.427 25.4691 110.624 24.2718 112.101 24.2718C113.578 24.2718 114.775 25.4691 114.775 26.946Z" fill="url(#paint9_linear_53_256)"/>
<path d="M12.6381 11.7635C12.6381 13.2404 11.4408 14.4377 9.96393 14.4377C8.48701 14.4377 7.28973 13.2404 7.28973 11.7635C7.28973 10.2866 8.48701 9.08929 9.96393 9.08929C11.4408 9.08929 12.6381 10.2866 12.6381 11.7635Z" fill="url(#paint10_linear_53_256)"/>
<defs>
<linearGradient id="paint0_linear_53_256" x1="0.90625" y1="15" x2="141" y2="15" gradientUnits="userSpaceOnUse">
<stop stop-color="#0C40FA"/>
<stop offset="1" stop-color="#F40194"/>
</linearGradient>
<linearGradient id="paint1_linear_53_256" x1="0.90625" y1="15" x2="141" y2="15" gradientUnits="userSpaceOnUse">
<stop stop-color="#0C40FA"/>
<stop offset="1" stop-color="#F40194"/>
</linearGradient>
<linearGradient id="paint2_linear_53_256" x1="0.90625" y1="15" x2="141" y2="15" gradientUnits="userSpaceOnUse">
<stop stop-color="#0C40FA"/>
<stop offset="1" stop-color="#F40194"/>
</linearGradient>
<linearGradient id="paint3_linear_53_256" x1="0.90625" y1="15" x2="141" y2="15" gradientUnits="userSpaceOnUse">
<stop stop-color="#0C40FA"/>
<stop offset="1" stop-color="#F40194"/>
</linearGradient>
<linearGradient id="paint4_linear_53_256" x1="0.90625" y1="15" x2="141" y2="15" gradientUnits="userSpaceOnUse">
<stop stop-color="#0C40FA"/>
<stop offset="1" stop-color="#F40194"/>
</linearGradient>
<linearGradient id="paint5_linear_53_256" x1="0.90625" y1="15" x2="141" y2="15" gradientUnits="userSpaceOnUse">
<stop stop-color="#0C40FA"/>
<stop offset="1" stop-color="#F40194"/>
</linearGradient>
<linearGradient id="paint6_linear_53_256" x1="0.90625" y1="15" x2="141" y2="15" gradientUnits="userSpaceOnUse">
<stop stop-color="#0C40FA"/>
<stop offset="1" stop-color="#F40194"/>
</linearGradient>
<linearGradient id="paint7_linear_53_256" x1="0.90625" y1="15" x2="141" y2="15" gradientUnits="userSpaceOnUse">
<stop stop-color="#0C40FA"/>
<stop offset="1" stop-color="#F40194"/>
</linearGradient>
<linearGradient id="paint8_linear_53_256" x1="0.90625" y1="15" x2="141" y2="15" gradientUnits="userSpaceOnUse">
<stop stop-color="#0C40FA"/>
<stop offset="1" stop-color="#F40194"/>
</linearGradient>
<linearGradient id="paint9_linear_53_256" x1="0.90625" y1="15" x2="141" y2="15" gradientUnits="userSpaceOnUse">
<stop stop-color="#0C40FA"/>
<stop offset="1" stop-color="#F40194"/>
</linearGradient>
<linearGradient id="paint10_linear_53_256" x1="0.90625" y1="15" x2="141" y2="15" gradientUnits="userSpaceOnUse">
<stop stop-color="#0C40FA"/>
<stop offset="1" stop-color="#F40194"/>
</linearGradient>
</defs>
</svg>
